General
Unique ID                                : 179997315037770907133779702665983357456 (0x876A38CE0C7BA381A80B17BDD630F210)
Complete name                            : Planet.Terror.2007.Unrated.1080p.BluRay.REMUX.AVC.TrueHD.5.1-EPSiLON.mkv
Format                                   : Matroska
Format version                           : Version 4
File size                                : 20.7 GiB
Duration                                 : 1 h 45 min
Overall bit rate mode                    : Variable
Overall bit rate                         : 28.0 Mb/s
Movie name                               : Planet Terror (2007)
Encoded date                             : UTC 2018-11-24 13:09:43
Writing application                      : mkvmerge v28.2.0 ('The Awakening') 64-bit
Writing library                          : libebml v1.3.6 + libmatroska v1.4.9

Video
ID                                       : 1
Format                                   : AVC
Format/Info                              : Advanced Video Codec
Format profile                           : High@L4.1
Format settings                          : CABAC / 3 Ref Frames
Format settings, CABAC                   : Yes
Format settings, Reference frames        : 3 frames
Codec ID                                 : V_MPEG4/ISO/AVC
Duration                                 : 1 h 45 min
Bit rate mode                            : Variable
Bit rate                                 : 23.4 Mb/s
Maximum bit rate                         : 36.0 Mb/s
Width                                    : 1 920 pixels
Height                                   : 1 080 pixels
Display aspect ratio                     : 16:9
Frame rate mode                          : Constant
Frame rate                               : 23.976 (24000/1001) FPS
Standard                                 : NTSC
Color space                              : YUV
Chroma subsampling                       : 4:2:0
Bit depth                                : 8 bits
Scan type                                : Progressive
Bits/(Pixel*Frame)                       : 0.470
Stream size                              : 17.2 GiB (83%)
Title                                    : MPEG-4 AVC Video / 23391 kbps / 1080p / 23.976 fps / 16:9 / High Profile 4.1
Language                                 : English
Default                                  : Yes
Forced                                   : No
Color range                              : Limited

Audio #1
ID                                       : 2
Format                                   : MLP FBA
Format/Info                              : Meridian Lossless Packing FBA
Commercial name                          : Dolby TrueHD
Codec ID                                 : A_TRUEHD
Duration                                 : 1 h 45 min
Bit rate mode                            : Variable
Bit rate                                 : 3 658 kb/s
Maximum bit rate                         : 5 445 kb/s
Channel(s)                               : 6 channels
Channel layout                           : L R C LFE Ls Rs
Sampling rate                            : 48.0 kHz
Frame rate                               : 1 200.000 FPS (40 SPF)
Compression mode                         : Lossless
Stream size                              : 2.70 GiB (13%)
Title                                    : Dolby TrueHD Audio / 5.1 / 48 kHz / 3658 kbps / 24-bit
Language                                 : English
Default                                  : Yes
Forced                                   : No

Audio #2
ID                                       : 3
Format                                   : AC-3
Format/Info                              : Audio Coding 3
Commercial name                          : Dolby Digital
Codec ID                                 : A_AC3
Duration                                 : 1 h 45 min
Bit rate mode                            : Constant
Bit rate                                 : 640 kb/s
Channel(s)                               : 6 channels
Channel layout                           : L R C LFE Ls Rs
Sampling rate                            : 48.0 kHz
Frame rate                               : 31.250 FPS (1536 SPF)
Compression mode                         : Lossy
Stream size                              : 483 MiB (2%)
Title                                    : Compatibility Track / Dolby Digital Audio / 5.1 / 48 kHz / 640 kbps
Language                                 : English
Service kind                             : Complete Main
Default                                  : No
Forced                                   : No

Audio #3
ID                                       : 4
Format                                   : AC-3
Format/Info                              : Audio Coding 3
Commercial name                          : Dolby Digital
Codec ID                                 : A_AC3
Duration                                 : 1 h 45 min
Bit rate mode                            : Constant
Bit rate                                 : 224 kb/s
Channel(s)                               : 2 channels
Channel layout                           : L R
Sampling rate                            : 48.0 kHz
Frame rate                               : 31.250 FPS (1536 SPF)
Compression mode                         : Lossy
Stream size                              : 169 MiB (1%)
Title                                    : Commentary by director/writer Robert Rodriguez
Language                                 : English
Service kind                             : Complete Main
Default                                  : No
Forced                                   : No

Text #1
ID                                       : 5
Format                                   : PGS
Codec ID                                 : S_HDMV/PGS
Codec ID/Info                            : Picture based subtitle format used on BDs/HD-DVDs
Duration                                 : 1 h 44 min
Bit rate                                 : 33.9 kb/s
Count of elements                        : 2978
Stream size                              : 25.5 MiB (0%)
Title                                    : SDH
Language                                 : English
Default                                  : No
Forced                                   : No

Text #2
ID                                       : 6
Format                                   : PGS
Codec ID                                 : S_HDMV/PGS
Codec ID/Info                            : Picture based subtitle format used on BDs/HD-DVDs
Duration                                 : 1 h 39 min
Bit rate                                 : 29.3 kb/s
Count of elements                        : 2508
Stream size                              : 20.8 MiB (0%)
Title                                    : Latin American
Language                                 : Spanish
Default                                  : No
Forced                                   : No

Menu
00:00:00.000                             : en:Machete
00:03:08.063                             : en:Cherry Darling
00:06:40.191                             : en:It's Go-Go Not Cry-Cry
00:08:36.975                             : en:Where's The Shift?
00:13:23.886                             : en:Now, That's A Rump Roast
00:15:04.070                             : en:No Dead Bodies for Dada Tonight
00:17:06.567                             : en:Palomita
00:21:36.170                             : en:Prescription
00:26:02.019                             : en:Road Kill
00:28:09.229                             : en:One Severed Limb
00:32:08.301                             : en:Best Damn BBQ in Texas
00:34:13.176                             : en:El Wray Interrogation
00:37:56.274                             : en:Cheating, Lying Back
00:42:09.777                             : en:Police Station Assault
00:46:28.202                             : en:Infected
00:48:48.592                             : en:Dakota's Bad Hand
00:51:15.072                             : en:Cherry's New Leg
00:54:19.715                             : en:Crazy Babysitter Twins
00:58:11.279                             : en:Toothless Buddies
01:01:09.583                             : en:Ring in the Jacket
01:05:53.324                             : en:Bone Shack Attack
01:10:18.339                             : en:Zero to Fifty in Four
01:13:52.136                             : en:Project Terror
01:19:46.407                             : en:Honorable Discharge
01:22:42.666                             : en:Melting Member
01:26:27.349                             : en:Killer Legs
01:31:55.218                             : en:Cherry's Dance of Death
01:34:08.518                             : en:Helicopter Sicko Chopper
01:36:07.929                             : en:Two Against the World
01:39:35.136                             : en:End Credits
